<svg xmlns="http://www.w3.org/2000/svg" viewBox="0 0 1046.96 165.32" width="1046.96" height="165.32"><title>PulseRival</title><path fill="#141312" d="M35.25 162.69L0 162.69L0 22.06L70.80 22.06Q96.29 22.06 108.98 32.81Q121.68 43.55 121.68 65.03L121.68 65.03Q121.68 86.42 107.81 97.21Q93.95 108.00 65.92 108.00L65.92 108.00L35.25 108.00L35.25 162.69ZM35.25 49.11L35.25 80.95L68.26 80.95Q77.15 80.95 81.93 76.80Q86.72 72.65 86.72 65.13L86.72 65.13Q86.72 57.81 81.98 53.46Q77.25 49.11 67.48 49.11L67.48 49.11L35.25 49.11ZM192.61 165.32L192.61 165.32Q172.59 165.32 158.43 158.68Q144.27 152.04 136.85 139.35Q129.43 126.65 129.43 108.59L129.43 108.59L129.43 22.06L164.68 22.06L164.68 107.81Q164.68 121.28 171.81 128.31Q178.94 135.34 192.61 135.34L192.61 135.34Q206.38 135.34 213.51 128.07Q220.64 120.79 220.64 105.66L220.64 105.66L220.64 22.06L255.89 22.06L255.89 108.59Q255.89 126.65 248.47 139.35Q241.05 152.04 226.94 158.68Q212.82 165.32 192.61 165.32ZM374.18 162.69L272.23 162.69L272.23 22.06L307.48 22.06L307.48 132.71L374.18 132.71L374.18 162.69ZM438.47 165.32L438.47 165.32Q422.85 165.32 409.13 160.73Q395.41 156.15 386.13 146.48Q376.85 136.81 374.41 121.57L374.41 121.57L410.15 114.35Q411.03 125.97 417.87 131.39Q424.70 136.81 437.59 136.81L437.59 136.81Q446.58 136.81 451.46 134.71Q456.34 132.61 458.25 129.34Q460.15 126.07 460.15 122.55L460.15 122.55Q460.15 116.01 454.54 112.30Q448.92 108.59 440.13 107.02L440.13 107.02L427.63 104.78Q419.43 103.41 411.18 100.87Q402.93 98.33 396.04 93.74Q389.16 89.15 385.01 81.83Q380.86 74.50 380.86 63.57L380.86 63.57Q380.86 49.60 387.94 39.74Q395.02 29.88 407.66 24.65Q420.31 19.43 436.81 19.43L436.81 19.43Q452.05 19.43 464.64 23.97Q477.24 28.51 485.64 37.35Q494.04 46.18 496.58 59.07L496.58 59.07L461.62 66.40Q460.74 60.83 458.44 56.73Q456.15 52.63 451.51 50.29Q446.87 47.94 438.77 47.94L438.77 47.94Q431.25 47.94 426.71 49.90Q422.16 51.85 420.11 54.88Q418.06 57.90 418.06 61.32L418.06 61.32Q418.06 67.77 425.09 70.94Q432.13 74.11 443.16 76.07L443.16 76.07L456.05 78.51Q466.30 80.27 475.92 84.86Q485.54 89.45 491.70 97.94Q497.85 106.44 497.85 120.21L497.85 120.21Q497.85 134.95 490.13 145.01Q482.42 155.07 469.04 160.20Q455.66 165.32 438.47 165.32ZM612.63 162.69L509.30 162.69L509.30 22.06L611.26 22.06L611.26 52.04L544.56 52.04L544.56 74.90L600.32 74.90L600.32 103.31L544.56 103.31L544.56 132.71L612.63 132.71L612.63 162.69ZM659.24 162.69L624.96 162.69L624.96 57.22L658.26 57.22L658.26 75.09Q663.14 65.32 670.96 60.34L670.96 60.34Q679.84 54.58 690.98 54.58L690.98 54.58Q694.10 54.58 697.42 55.07Q700.74 55.56 704.06 56.73L704.06 56.73L701.82 85.34Q695.08 83.49 689.02 83.49L689.02 83.49Q683.55 83.49 678.28 85.30Q673.01 87.10 668.71 91.35Q664.41 95.60 661.83 103.02Q659.24 110.44 659.24 121.67L659.24 121.67L659.24 162.69ZM748.53 162.69L714.25 162.69L714.25 57.22L748.53 57.22L748.53 162.69ZM837.13 162.69L796.90 162.69L756.86 57.22L795.14 57.22L817.02 133.00L838.79 57.22L877.07 57.22L837.13 162.69ZM916.36 165.23L916.36 165.23Q906.50 165.23 897.66 161.91Q888.82 158.59 883.36 151.56Q877.89 144.52 877.89 133.29L877.89 133.29Q877.89 121.18 884.87 113.32Q891.85 105.46 904.60 101.56Q917.34 97.65 934.92 97.65L934.92 97.65L946.83 97.65L946.83 94.52Q946.83 84.95 943.56 80.56Q940.29 76.16 932.77 76.16L932.77 76.16Q925.45 76.16 921.64 80.07Q917.83 83.98 916.66 91.50L916.66 91.50L882.48 85.93Q884.43 77.04 890.44 69.91Q896.44 62.79 907.33 58.59Q918.22 54.39 934.63 54.39L934.63 54.39Q949.08 54.39 959.38 58.68Q969.68 62.98 975.20 73.33Q980.72 83.68 980.72 101.95L980.72 101.95L980.72 132.81Q980.72 136.13 981.65 137.20Q982.57 138.27 985.60 138.27L985.60 138.27L989.90 138.27L989.90 162.69L974.66 162.69Q961.38 162.69 954.84 156.24L954.84 156.24Q951.42 152.92 949.76 147.94L949.76 147.94Q947.71 151.65 944.59 154.97L944.59 154.97Q940.39 159.47 933.50 162.35Q926.62 165.23 916.36 165.23ZM926.62 142.96L926.62 142.96Q932.96 142.96 937.55 140.13Q942.14 137.30 944.68 131.93Q947.22 126.56 947.22 118.94L947.22 118.94L947.22 116.11L936.58 116.11Q927.20 116.11 922.03 118.55Q916.85 120.99 914.85 124.50Q912.85 128.02 912.85 131.24L912.85 131.24Q912.85 133.39 913.92 136.13Q915.00 138.86 917.93 140.91Q920.86 142.96 926.62 142.96ZM1046.96 162.69L1028.41 162.69Q1014.44 162.69 1007.51 156.34Q1000.57 149.99 1000.57 137.49L1000.57 137.49L1000.57 16.20L1034.85 16.20L1034.85 132.81Q1034.85 136.13 1035.78 137.20Q1036.71 138.27 1039.73 138.27L1039.73 138.27L1046.96 138.27L1046.96 162.69Z"></path><path fill="#DD4115" d="M710.61 14.77A25.2 25.2 0 0 0 758.89 29.25Z M697.79 0L766.67 20.66L766.67 26.54L697.79 5.88Z"></path></svg>
